<!-- sample rectangle -->
<svg width="215" height="100" viewBox="0 0 215 100" fill="none" xmlns="http://www.w3.org/2000/svg">
<g clip-path="url(#clip0_33_11)">
<path d="M34.0365 16.1755L31.5728 10.2447L37.8922 11.3888C43.9679 12.4888 50.9975 15.846 56.045 21.1866C59.5373 15.8693 63.7559 11.0646 68.9047 6.93937L74.2349 11.2135C72.5523 14.6402 71.7886 17.3758 71.4993 20.4812C76.1492 18.9636 81.9748 18.0602 89.0386 18.4817L99.5359 19.1082L90.7569 24.8974C88.9177 26.1102 87.2995 27.2884 85.8878 28.4449C91.445 28.4366 97.4172 29.6643 104.388 32.1943L113.029 35.3309L104.49 38.7355C100.442 40.3494 97.59 42.3364 94.7482 44.9929C100.532 46.8621 105.948 50.0447 109.873 53.4557L116.821 59.4935L107.617 59.5973C102.804 59.6516 97.1356 59.786 92.2097 60.4371C94.3833 64.0995 95.8385 68.2546 96.6157 72.853L98.3349 83.0249L90.781 75.9992C85.3319 70.9311 78.5345 67.0815 70.2602 64.4911L66.6243 63.3528C63.7159 64.8435 60.8689 66.6075 58.0805 68.571L59.0603 69.4226L57.1458 69.2381C51.3024 73.4644 45.7168 78.5385 40.3617 83.772L39.0167 85.0865L37.1782 84.6903C34.4491 84.1023 32.0457 83.5097 29.8573 82.8234L28.6507 82.445L27.9646 81.3828L25.4638 77.511L25.3 77.2575L23.9085 77.1329L16.5553 76.475L15.7656 76.4044L15.0834 76.0003C14.1961 75.4746 13.2285 74.8917 12.215 74.281C11.2921 73.725 10.331 73.1459 9.35757 72.5662L5.89371 70.5033L8.42266 67.3636C13.7686 60.7265 19.8791 55.4888 25.3944 50.7613C26.436 49.8685 27.4563 48.9939 28.4463 48.1315C30.4441 41.0261 34.4674 34.8851 39.9193 30.2667C37.9551 25.5759 35.9909 20.8804 34.0365 16.1755Z" stroke="#9841FF" stroke-width="7"/>
</g>
<defs>
<clipPath id="clip0_33_11">
<rect width="215" height="100" fill="white"/>
</clipPath>
</defs>
</svg>